<svg xmlns="http://www.w3.org/2000/svg" width="29.837" height="29.837" viewBox="0 0 29.837 29.837">
  <path id="icons8-tick-box" d="M8.973,4A4.944,4.944,0,0,0,4,8.973V28.864a4.944,4.944,0,0,0,4.973,4.973H28.864a4.944,4.944,0,0,0,4.973-4.973V11.814l-1.421,1.643V28.864a3.517,3.517,0,0,1-3.552,3.552H8.973a3.517,3.517,0,0,1-3.552-3.552V8.973A3.517,3.517,0,0,1,8.973,5.421H27.732L28.864,4Zm22.91,2.664L18.141,22.87l-5.772-5.395-.977,1.043L17.72,24.4l.555.511.466-.555L32.949,7.574Z" transform="translate(-4 -4)"/>
</svg>
