<svg xmlns="http://www.w3.org/2000/svg" width="94.631" height="94.631" viewBox="0 0 94.631 94.631">
  <path id="icons8-goal" d="M49.315,2A47.379,47.379,0,1,0,89.033,23.645L87.2,25.481l-1.173,1.173a43.467,43.467,0,1,1-9.965-11.166v4.175l-5.01,5.01a32.578,32.578,0,1,0,5.48,6.156L73.548,33.81a29.009,29.009,0,1,1-5.408-6.228l-7.3,7.3a18.524,18.524,0,1,0,5.163,6.477L62.868,44.49a14.468,14.468,0,1,1-4.946-6.69l-7.546,7.546a4.108,4.108,0,1,0,2.913,2.9L78.968,22.572h5.32L94.574,12.286H86.345V4.057l-7.968,7.968A47.046,47.046,0,0,0,49.315,2Z" transform="translate(-2 -2)" fill="#f42244"/>
</svg>
