<svg xmlns="http://www.w3.org/2000/svg" width="104.331" height="104.331" viewBox="0 0 104.331 104.331">
  <path id="icons8-good-quality" d="M54.166,2a52.166,52.166,0,1,0,52.166,52.166A52.332,52.332,0,0,0,54.166,2Zm0,4.536A47.629,47.629,0,1,1,6.536,54.166,47.756,47.756,0,0,1,54.166,6.536Zm-1.794,9.077a4.755,4.755,0,0,0-2.959.97,5.928,5.928,0,0,0-2.033,4.08q0,.027,0,.053a16.493,16.493,0,0,1-5.639,11.637c-2.818,2.6-6.354,4.467-9.01,7.606l-.013.018c-2.129,2.575-3.6,5.286-4.913,7.136a9.664,9.664,0,0,1-1.785,2.007,1.954,1.954,0,0,1-1.333.509v4.536a6.8,6.8,0,0,0,4.084-1.44,13.359,13.359,0,0,0,2.729-2.981c1.571-2.206,2.945-4.73,4.709-6.866,0,0,0-.006,0-.009,1.855-2.183,5.28-4.11,8.607-7.185a21.746,21.746,0,0,0,7.074-14.539l0,.058c.107-.891.331-1.052.328-1.05s-.008-.047.323.013a5.131,5.131,0,0,1,2.507,1.892l.013.027c.9,1.529.994,3.771.434,6.348a36.823,36.823,0,0,1-2.822,7.633l-.022.049a7.1,7.1,0,0,0-.7,3.867,5.229,5.229,0,0,0,1.781,3.225c1.826,1.547,4.185,1.892,6.733,1.892h11.85a6.126,6.126,0,0,1,3.065.638c.48.3.456.358.456.607,0,1.258-.385,3.956-.385,3.956a2.268,2.268,0,0,0,1.528,2.5,2.96,2.96,0,0,1,2.135,2.764,3.818,3.818,0,0,1-2.024,3.1,2.268,2.268,0,0,0,.217,4.151A2.666,2.666,0,0,1,79.114,65.4,2.913,2.913,0,0,1,77.8,67.681a6.619,6.619,0,0,1-1.528.926,2.268,2.268,0,0,0-1.01,3.477,4.862,4.862,0,0,1,.775,2.534,2.985,2.985,0,0,1-.115,1.1c-.1.265-.269.6-1.116,1.112-1.7,1.021-6.211,2.286-15.761,2.286-12.777,0-18.293-1.1-22.1-2.179s-6.428-2.357-12.271-2.357v4.536c5.223,0,6.872.995,11.03,2.179S46,83.65,59.047,83.65c9.916,0,15.031-1.089,18.1-2.937a6.406,6.406,0,0,0,3.429-6.1,8.063,8.063,0,0,0-.66-2.972,4.157,4.157,0,0,0,.74-.439A7.559,7.559,0,0,0,83.65,65.4a6.723,6.723,0,0,0-2.011-4.789,7.451,7.451,0,0,0,2.011-5.05,6.54,6.54,0,0,0-3.575-6.06,19.443,19.443,0,0,0,.3-3.158A5.418,5.418,0,0,0,77.8,41.9a10.119,10.119,0,0,0-5.489-1.338H60.465a7.224,7.224,0,0,1-3.8-.82c-.188-.16-.192-.174-.217-.363a2.82,2.82,0,0,1,.337-1.4,40.152,40.152,0,0,0,3.141-8.581c.689-3.169.794-6.623-.957-9.6a8.192,8.192,0,0,0-5.63-4.093A5.5,5.5,0,0,0,52.371,15.613Z" transform="translate(-2 -2)" fill="#f42244"/>
</svg>
