<svg xmlns="http://www.w3.org/2000/svg" width="93.91" height="82.631" viewBox="0 0 93.91 82.631">
  <path id="icons8-briefcase" d="M37.565,3a5.664,5.664,0,0,0-5.634,5.634v5.634H5.639A5.664,5.664,0,0,0,.005,19.9V47.719a1.414,1.414,0,0,0,0,.352V80a5.664,5.664,0,0,0,5.634,5.634H88.27A5.664,5.664,0,0,0,93.9,80V19.9a5.664,5.664,0,0,0-5.634-5.634H61.978V8.634A5.664,5.664,0,0,0,56.344,3Zm0,3.756h18.78a1.854,1.854,0,0,1,1.878,1.878v5.634H35.687V8.634A1.854,1.854,0,0,1,37.565,6.756ZM5.639,18.024H88.27A1.854,1.854,0,0,1,90.148,19.9v28.17a1.854,1.854,0,0,1-1.878,1.878H5.639a1.854,1.854,0,0,1-1.878-1.878,1.414,1.414,0,0,0,0-.352V19.9A1.854,1.854,0,0,1,5.639,18.024ZM46.954,38.681a3.756,3.756,0,1,0,3.756,3.756A3.754,3.754,0,0,0,46.954,38.681ZM3.761,53.353a5.541,5.541,0,0,0,1.878.352H88.27a5.541,5.541,0,0,0,1.878-.352V80a1.854,1.854,0,0,1-1.878,1.878H5.639A1.854,1.854,0,0,1,3.761,80Z" transform="translate(0.006 -3)" fill="#f42244"/>
</svg>
