<svg xmlns="http://www.w3.org/2000/svg" width="39.216" height="34.845" viewBox="0 0 39.216 34.845">
  <path id="icons8-send-email" d="M0,3V28.923H1.621V4.62H36.455V3ZM3.241,6.24V8.354C5.39,10.221,17.712,20.949,18.687,21.8a3.691,3.691,0,0,0,2.376.971,3.691,3.691,0,0,0,2.376-.971c1.009-.88,14.053-12.227,15.445-13.442V6.24Zm0,4V28.129l10.775-8.506C10.522,16.582,5.545,12.246,3.241,10.24Zm35.644,0L27.015,20.578c-1.38,1.2-2.386,2.073-2.639,2.294a5.129,5.129,0,0,1-3.313,1.32,5.129,5.129,0,0,1-3.313-1.32c-.25-.218-1.256-1.092-2.639-2.3L3.241,29.948v2.215H23.493v-3.24h8.715L30.686,27.4a2.43,2.43,0,1,1,3.437-3.437l4.762,4.762Zm-6.49,14.62a.821.821,0,0,0-.75.506.81.81,0,0,0,.187.886l4.288,4.288H25.113v1.62H36.119l-4.288,4.288A.81.81,0,1,0,32.977,37.6l6.243-6.243L32.977,25.11A.816.816,0,0,0,32.395,24.863Z" transform="translate(-0.004 -3)" fill="#fff"/>
</svg>
